<?xml version="1.0" encoding="UTF-8"?>
<svg version="1.1" xmlns="http://www.w3.org/2000/svg" width="190" height="100">
<path d="M0 0 C2.31 0 4.62 0 7 0 C7.33 0.99 7.66 1.98 8 3 C8.66 2.01 9.32 1.02 10 0 C13.625 -0.1875 13.625 -0.1875 17 0 C16.690625 0.9075 16.38125 1.815 16.0625 2.75 C15.711875 3.8225 15.36125 4.895 15 6 C14.731875 6.66 14.46375 7.32 14.1875 8 C13.89329124 11.13822673 15.5517058 13.2772069 17 16 C17 16.99 17 17.98 17 19 C13.625 19.1875 13.625 19.1875 10 19 C9.34 18.01 8.68 17.02 8 16 C7.67 16.99 7.34 17.98 7 19 C4.69 19 2.38 19 0 19 C0 12.73 0 6.46 0 0 Z " fill="#71A14A" transform="translate(132,41)"/>
<path d="M0 0 C3.3125 0.9375 3.3125 0.9375 5.3125 2.9375 C7.23729599 8.21555693 6.36741143 14.44635674 6.3125 19.9375 C1.3625 19.9375 -3.5875 19.9375 -8.6875 19.9375 C-8.790625 17.565625 -8.89375 15.19375 -9 12.75 C-9.04552002 12.01241455 -9.09104004 11.2748291 -9.13793945 10.51489258 C-9.21900016 6.64228274 -8.76839787 5.04324705 -6.3984375 1.9453125 C-3.6875 -0.0625 -3.6875 -0.0625 0 0 Z M-1.6875 6.9375 C-0.6875 8.9375 -0.6875 8.9375 -0.6875 8.9375 Z " fill="#6E9F47" transform="translate(159.6875,40.0625)"/>
<path d="M0 0 C2.94770356 2.94770356 2.94372359 5.78840201 3.1328125 9.859375 C3.13023438 10.81328125 3.12765625 11.7671875 3.125 12.75 C3.12757812 13.71421875 3.13015625 14.6784375 3.1328125 15.671875 C3 18 3 18 2 19 C-0.35313555 19.07271741 -2.70833668 19.08370868 -5.0625 19.0625 C-6.35285156 19.05347656 -7.64320312 19.04445313 -8.97265625 19.03515625 C-9.97167969 19.02355469 -10.97070312 19.01195313 -12 19 C-12.13487595 16.22754986 -12.23400807 13.46162912 -12.3125 10.6875 C-12.35439453 9.90181641 -12.39628906 9.11613281 -12.43945312 8.30664062 C-12.48635611 6.10220019 -12.4660937 4.15614774 -12 2 C-8.02659705 -1.56656989 -5.05462694 -1.23981415 0 0 Z M-5 6 C-4 8 -4 8 -4 8 Z " fill="#6E9F47" transform="translate(19,41)"/>
<path d="M0 0 C10.08159393 -0.4800759 10.08159393 -0.4800759 13.75 1.4375 C15.38713972 4.79363643 14.91272621 6.99488953 14.1640625 10.5859375 C13.80100176 13.66908942 13.80100176 13.66908942 16 19 C10.72 19 5.44 19 0 19 C0 12.73 0 6.46 0 0 Z " fill="#6EA047" transform="translate(169,41)"/>
<path d="M0 0 C3.3125 0.9375 3.3125 0.9375 5.3125 2.9375 C5.45767744 5.8468558 5.49880796 8.657446 5.4375 11.5625 C5.42847656 12.36429688 5.41945313 13.16609375 5.41015625 13.9921875 C5.38656223 15.97408523 5.35069065 17.95582981 5.3125 19.9375 C0.6925 19.9375 -3.9275 19.9375 -8.6875 19.9375 C-9.69004075 14.590616 -9.89406374 10.28085373 -8.6875 4.9375 C-5.93242806 0.96695515 -4.89387439 -0.08294702 0 0 Z " fill="#6F9F48" transform="translate(48.6875,40.0625)"/>
<path d="M0 0 C2.52775351 3.79163027 2.22443035 6.80874031 2.125 11.1875 C2.11597656 11.93708984 2.10695313 12.68667969 2.09765625 13.45898438 C2.07412578 15.30612654 2.03825561 17.15310412 2 19 C-2.62 19 -7.24 19 -12 19 C-12.13487595 16.22754986 -12.23400807 13.46162912 -12.3125 10.6875 C-12.35439453 9.90181641 -12.39628906 9.11613281 -12.43945312 8.30664062 C-12.48635573 6.10221799 -12.46614972 4.15612108 -12 2 C-8.04314974 -1.54495971 -5.02797079 -1.32814323 0 0 Z " fill="#6EA047" transform="translate(109,41)"/>
<path d="M0 0 C11.12252194 -0.60448489 11.12252194 -0.60448489 14.8125 1.9375 C16.23380068 5.60295966 15.99148907 7.91591016 15.26171875 11.71875 C14.8280829 14.4690279 14.8280829 14.4690279 16 19 C11.05 19 6.1 19 1 19 C0.67 12.73 0.34 6.46 0 0 Z " fill="#6FA047" transform="translate(114,41)"/>
<path d="M0 0 C2.70607138 2.52945133 2.99416162 3.92682569 3.29296875 7.671875 C3.27316751 9.03156035 3.23759202 10.3910934 3.1875 11.75 C3.17396484 12.44738281 3.16042969 13.14476562 3.14648438 13.86328125 C3.1112945 15.57585541 3.05749155 17.28802941 3 19 C0.68756208 19.02685412 -1.6249627 19.04632841 -3.9375 19.0625 C-5.22527344 19.07410156 -6.51304688 19.08570312 -7.83984375 19.09765625 C-11 19 -11 19 -12 18 C-12.15251793 15.73276231 -12.2219194 13.45968836 -12.25 11.1875 C-12.27578125 9.94355469 -12.3015625 8.69960938 -12.328125 7.41796875 C-11.98352633 3.82839923 -11.56230565 2.47250522 -9 0 C-5.4314543 -1.18951523 -3.60804584 -0.97717908 0 0 Z " fill="#6FA347" transform="translate(69,41)"/>
<path d="M0 0 C5.66666667 0 11.33333333 0 17 0 C15.87548273 2.9719385 14.77706209 5.33440687 13 8 C12.54227937 10.73872955 12.54227937 10.73872955 12.375 13.6875 C12.30023438 14.68136719 12.22546875 15.67523438 12.1484375 16.69921875 C12.09945312 17.45847656 12.05046875 18.21773437 12 19 C9.69 19 7.38 19 5 19 C4.97421875 18.27554688 4.9484375 17.55109375 4.921875 16.8046875 C4.55545069 10.55881857 3.89342005 6.89817361 0 2 C0 1.34 0 0.68 0 0 Z " fill="#6D9D47" transform="translate(22,41)"/>
<path d="M0 0 C0.721875 0.268125 1.44375 0.53625 2.1875 0.8125 C2.1875 2.7925 2.1875 4.7725 2.1875 6.8125 C1.5275 6.8125 0.8675 6.8125 0.1875 6.8125 C0.538125 7.534375 0.88875 8.25625 1.25 9 C2.31537856 12.19613569 2.2687528 13.6519149 1.1875 16.8125 C-0.50843191 19.18680467 -1.55401596 19.73684614 -4.375 20.5625 C-6.8125 20.8125 -6.8125 20.8125 -8.8125 19.8125 C-8.8125 17.5025 -8.8125 15.1925 -8.8125 12.8125 C-8.1525 12.4825 -7.4925 12.1525 -6.8125 11.8125 C-7.080625 10.760625 -7.34875 9.70875 -7.625 8.625 C-7.8125 4.8125 -7.8125 4.8125 -5.6875 1.8125 C-2.8125 -0.1875 -2.8125 -0.1875 0 0 Z " fill="#6E9C48" transform="translate(91.8125,40.1875)"/>
<path d="M0 0 C-0.30679688 0.51046875 -0.61359375 1.0209375 -0.9296875 1.546875 C-2.32738285 4.75035193 -2.67631045 7.78868061 -3.125 11.25 C-3.29257812 12.51328125 -3.46015625 13.7765625 -3.6328125 15.078125 C-3.75398438 16.04234375 -3.87515625 17.0065625 -4 18 C-4.33 18 -4.66 18 -5 18 C-5.08119503 15.75059705 -5.13927819 13.50035129 -5.1875 11.25 C-5.22230469 9.99703125 -5.25710937 8.7440625 -5.29296875 7.453125 C-4.97998906 3.76413775 -4.32735588 0 0 0 Z " fill="#777369" transform="translate(62,41)"/>
</svg>
